# xmcd
#
# Track frame offsets: 
#        150
#        12076
#        23651
#        43187
#        53948
#        66917
#        78458
#        107911
#        120777
#
# Disc length: 1755 seconds
#
# Revision: 0
# Processed by: cddbd v1.5.2PL0 Copyright (c) Steve Scherf et al.
# Submitted via: ExactAudioCopy v1.0b1
#
DISCID=6b06d909
DTITLE=The Twistin' Kings - Twistin' The World Around
DYEAR=1961
DGENRE=R&B
TTITLE0=Old Folks Twist
TTITLE1=White House Twist
TTITLE2=Twistin' The World Around
TTITLE3=Twist A La B.G.
TTITLE4=Flying Circle Twist
TTITLE5=Mexican Twist
TTITLE6=Congo Twist
TTITLE7=Christmas Twist
TTITLE8=Twisting Ales Style
EXTD=
EXTT0=
EXTT1=
EXTT2=
EXTT3=
EXTT4=
EXTT5=
EXTT6=
EXTT7=
EXTT8=
PLAYORDER=
